<svg xmlns="http://www.w3.org/2000/svg" viewBox="0 0 240 240"><rect width="240" height="240" fill="#fffaf2"/><polyline points="96,102 76,134 72,164" fill="none" stroke="#f2c9a0" stroke-width="12" stroke-linecap="round" stroke-linejoin="round"/><polyline points="144,102 164,134 168,164" fill="none" stroke="#f2c9a0" stroke-width="12" stroke-linecap="round" stroke-linejoin="round"/><circle cx="71" cy="172" r="7" fill="#f2c9a0"/><circle cx="169" cy="172" r="7" fill="#f2c9a0"/><polyline points="106,178 104,204 103,226" fill="none" stroke="#f2c9a0" stroke-width="13" stroke-linecap="round" stroke-linejoin="round"/><polyline points="134,178 136,204 137,226" fill="none" stroke="#f2c9a0" stroke-width="13" stroke-linecap="round" stroke-linejoin="round"/><ellipse cx="99" cy="232" rx="11" ry="6" fill="#c99b6d"/><ellipse cx="141" cy="232" rx="11" ry="6" fill="#c99b6d"/><rect x="112" y="74" width="16" height="18" fill="#f2c9a0"/><circle cx="120" cy="52" r="26" fill="#f2c9a0" stroke="#c99b6d" stroke-width="2"/><path d="M 96 46 A 26 26 0 0 1 144 46 L 138 38 L 128 30 L 108 32 Z" fill="#6b4a2f"/><circle cx="111" cy="52" r="2.6" fill="#241e2e"/><circle cx="129" cy="52" r="2.6" fill="#241e2e"/><path d="M 112 62 Q 120 68 128 62" fill="none" stroke="#241e2e" stroke-width="2" stroke-linecap="round"/><rect x="92" y="90" width="56" height="66" rx="14" fill="#7cc39a" stroke="#4f9873" stroke-width="2"/><rect x="94" y="152" width="52" height="28" rx="9" fill="#5b8dd9" stroke="#3f6dae" stroke-width="2"/><circle cx="136" cy="204" r="17" fill="none" stroke="#ff8a3d" stroke-width="9" opacity="0.35"/><circle cx="136" cy="204" r="11" fill="none" stroke="#ff8a3d" stroke-width="4.5"/></svg>